<?xml version="1.0" standalone="no"?>
<!DOCTYPE svg PUBLIC "-//W3C//DTD SVG 20010904//EN"
 "http://www.w3.org/TR/2001/REC-SVG-20010904/DTD/svg10.dtd">
<svg version="1.0" xmlns="http://www.w3.org/2000/svg"
 width="16.000000pt" height="16.000000pt" viewBox="0 0 16.000000 16.000000"
 preserveAspectRatio="xMidYMid meet">
<metadata>
Created by potrace 1.11, written by Peter Selinger 2001-2013
</metadata>
<g transform="translate(0.000000,16.000000) scale(0.003125,-0.003125)"
fill="#000000" stroke="none">
<path d="M2385 5014 c-114 -11 -281 -38 -370 -59 -904 -212 -1604 -906 -1824
-1807 -52 -215 -65 -329 -65 -578 0 -239 12 -356 59 -555 212 -903 906 -1604
1807 -1824 214 -52 329 -65 578 -65 240 0 357 12 555 59 905 213 1605 907
1824 1807 52 215 65 330 65 578 0 240 -12 357 -59 555 -231 979 -1017 1707
-2015 1866 -120 19 -456 33 -555 23z m401 -225 c461 -44 889 -229 1249 -538
l86 -75 -232 -232 -232 -232 -71 60 c-198 167 -430 280 -698 340 -90 20 -130
23 -318 23 -241 0 -327 -13 -523 -81 -447 -156 -805 -514 -961 -961 -68 -196
-81 -282 -81 -523 0 -241 13 -327 81 -523 156 -447 514 -805 961 -961 196 -68
282 -81 523 -81 188 0 228 3 318 23 296 66 540 193 753 390 l60 55 232 -232
232 -232 -75 -70 c-877 -819 -2246 -794 -3095 56 -873 873 -873 2277 0 3150
473 474 1127 709 1791 644z m-27 -1793 c293 -201 539 -373 547 -383 19 -25 17
-67 -3 -91 -10 -11 -256 -183 -547 -381 -395 -270 -536 -361 -558 -361 -17 0
-39 10 -53 25 l-25 24 0 741 0 741 25 24 c14 15 36 25 52 25 21 0 170 -96 562
-364z"/>
</g>
</svg>
